<svg width="98" height="98" viewBox="0 0 98 98" fill="none" xmlns="http://www.w3.org/2000/svg">
<path d="M91.2674 73.3433H86.191" stroke="#DEDED9" stroke-linecap="round" stroke-linejoin="round"/>
<path d="M82.1338 73.3433H76.048H71.9908H67.9336H61.8478" stroke="#DEDED9" stroke-linecap="round" stroke-linejoin="round"/>
<path d="M6.7424 73.3433H11.809H15.8662H19.9234H24.6568H28.714H34.4568H39.1902H47.6476H49H53.7334H57.7906" stroke="#DEDED9" stroke-linecap="round" stroke-linejoin="round"/>
<path d="M86.24 54.1843V73.3433H82.1338V57.8201H61.8478V73.3433H57.82V54.1843C57.8226 53.8862 57.9421 53.601 58.1529 53.3902C58.3637 53.1794 58.6489 53.0599 58.947 53.0573H85.064C85.2157 53.0521 85.367 53.0773 85.5088 53.1315C85.6506 53.1856 85.7802 53.2676 85.8898 53.3727C85.9994 53.4777 86.0869 53.6037 86.147 53.7431C86.2072 53.8825 86.2388 54.0325 86.24 54.1843V54.1843Z" stroke="#DEDED9" stroke-linecap="round" stroke-linejoin="round"/>
<path d="M82.1338 57.7905H61.8478V73.3431H82.1338V57.7905Z" stroke="#DEDED9" stroke-linecap="round" stroke-linejoin="round"/>
<path d="M83.4862 25.7836V53.057H60.4954V25.7836C60.498 25.4855 60.6175 25.2004 60.8283 24.9896C61.0391 24.7787 61.3243 24.6592 61.6224 24.6566H82.32C82.4709 24.6527 82.6211 24.6789 82.7618 24.7337C82.9025 24.7884 83.0309 24.8707 83.1394 24.9756C83.248 25.0805 83.3346 25.206 83.3941 25.3447C83.4536 25.4835 83.485 25.6327 83.4862 25.7836Z" stroke="#DEDED9" stroke-linecap="round" stroke-linejoin="round"/>
<path d="M60.4954 37.5049H15.8662V40.2097H60.4954V37.5049Z" stroke="#DEDED9" stroke-linecap="round" stroke-linejoin="round"/>
<path d="M60.4954 44.9429H15.8662V47.6477H60.4954V44.9429Z" stroke="#DEDED9" stroke-linecap="round" stroke-linejoin="round"/>
<path d="M24.6568 70.6386H19.9234C19.5733 70.6513 19.2418 70.7993 18.9986 71.0516C18.7555 71.3039 18.6198 71.6406 18.62 71.991C18.62 72.3497 18.7625 72.6937 19.0161 72.9473C19.2697 73.2009 19.6137 73.3434 19.9724 73.3434H24.7058C25.0645 73.3434 25.4085 73.2009 25.6621 72.9473C25.9157 72.6937 26.0582 72.3497 26.0582 71.991V71.991C26.0583 71.8092 26.0218 71.6292 25.9508 71.4619C25.8798 71.2945 25.7757 71.1432 25.6449 71.0169C25.5141 70.8907 25.3592 70.7921 25.1894 70.7271C25.0196 70.6621 24.8385 70.632 24.6568 70.6386V70.6386Z" stroke="#DEDED9" stroke-linecap="round" stroke-linejoin="round"/>
<path d="M18.62 71.9907V65.4443C18.6203 64.875 18.8458 64.329 19.2472 63.9253L20.58 62.5239H23.961L25.3624 63.9253C25.7638 64.329 25.9893 64.875 25.9896 65.4443V71.9907" stroke="#DEDED9" stroke-linecap="round" stroke-linejoin="round"/>
<path d="M23.9806 62.5242H20.58V60.9464C20.5732 60.7931 20.5981 60.6401 20.653 60.4968C20.708 60.3535 20.7919 60.2231 20.8995 60.1137C21.007 60.0043 21.136 59.9182 21.2783 59.8608C21.4206 59.8035 21.5732 59.776 21.7266 59.7802H22.8536C23.002 59.7789 23.1491 59.8072 23.2864 59.8633C23.4237 59.9195 23.5485 60.0025 23.6534 60.1074C23.7583 60.2123 23.8413 60.337 23.8975 60.4744C23.9536 60.6117 23.9819 60.7588 23.9806 60.9072V62.5242Z" stroke="#DEDED9" stroke-linecap="round" stroke-linejoin="round"/>
<path d="M40.5524 71.9906C40.5524 71.813 40.5174 71.6371 40.4495 71.473C40.3815 71.309 40.2819 71.1599 40.1563 71.0343C40.0307 70.9087 39.8816 70.8091 39.7175 70.7411C39.5535 70.6732 39.3776 70.6382 39.2 70.6382H34.4568C34.0981 70.6382 33.7541 70.7807 33.5005 71.0343C33.2469 71.2879 33.1044 71.6319 33.1044 71.9906C33.1044 72.3493 33.2469 72.6932 33.5005 72.9469C33.7541 73.2005 34.0981 73.343 34.4568 73.343H39.2C39.3784 73.3443 39.5553 73.3102 39.7205 73.2429C39.8858 73.1755 40.036 73.0761 40.1626 72.9504C40.2893 72.8246 40.3897 72.6751 40.4583 72.5104C40.5269 72.3457 40.5622 72.169 40.5622 71.9906H40.5524Z" stroke="#DEDED9" stroke-linecap="round" stroke-linejoin="round"/>
<path d="M33.1044 71.9907V65.4443C33.1073 64.8736 33.3364 64.3274 33.7414 63.9253L35.133 62.5239H38.5238L39.9154 63.9253C40.3204 64.3274 40.5495 64.8736 40.5524 65.4443V71.9907" stroke="#DEDED9" stroke-linecap="round" stroke-linejoin="round"/>
<path d="M38.5238 62.5238H35.133V60.946C35.1277 60.7948 35.153 60.644 35.2073 60.5027C35.2615 60.3614 35.3437 60.2325 35.4489 60.1237C35.5541 60.0148 35.6801 59.9283 35.8195 59.8692C35.9588 59.8101 36.1086 59.7797 36.26 59.7798H37.387C37.5358 59.7785 37.6834 59.8067 37.8213 59.8628C37.9592 59.9188 38.0846 60.0017 38.1903 60.1064C38.2959 60.2112 38.3798 60.3359 38.4371 60.4733C38.4943 60.6106 38.5238 60.758 38.5238 60.9068V62.5238Z" stroke="#DEDED9" stroke-linecap="round" stroke-linejoin="round"/>
<path d="M55.0858 71.9906C55.0858 71.6319 54.9433 71.2879 54.6897 71.0343C54.4361 70.7807 54.0921 70.6382 53.7334 70.6382H49C48.8224 70.6382 48.6465 70.6732 48.4825 70.7411C48.3184 70.8091 48.1693 70.9087 48.0437 71.0343C47.9181 71.1599 47.8185 71.309 47.7505 71.473C47.6826 71.6371 47.6476 71.813 47.6476 71.9906C47.6476 72.1682 47.6826 72.3441 47.7505 72.5081C47.8185 72.6722 47.9181 72.8213 48.0437 72.9469C48.1693 73.0725 48.3184 73.1721 48.4825 73.24C48.6465 73.308 48.8224 73.343 49 73.343H53.7334C54.0921 73.343 54.4361 73.2005 54.6897 72.9469C54.9433 72.6933 55.0858 72.3493 55.0858 71.9906V71.9906Z" stroke="#DEDED9" stroke-linecap="round" stroke-linejoin="round"/>
<path d="M47.6476 71.9907V65.4443C47.6479 64.875 47.8734 64.329 48.2748 63.9253L49.6762 62.5239H53.0572L54.4586 63.9253C54.86 64.329 55.0855 64.875 55.0858 65.4443V71.9907" stroke="#DEDED9" stroke-linecap="round" stroke-linejoin="round"/>
<path d="M53.0572 62.5238H49.6762V60.946C49.6695 60.7944 49.6938 60.643 49.7476 60.5011C49.8014 60.3592 49.8835 60.2298 49.989 60.1206C50.0944 60.0115 50.221 59.925 50.361 59.8664C50.501 59.8078 50.6515 59.7784 50.8032 59.7798H51.94C52.0884 59.7785 52.2355 59.8068 52.3728 59.863C52.5102 59.9191 52.6349 60.0021 52.7398 60.107C52.8447 60.2119 52.9277 60.3367 52.9839 60.474C53.0401 60.6113 53.0683 60.7585 53.067 60.9068L53.0572 62.5238Z" stroke="#DEDED9" stroke-linecap="round" stroke-linejoin="round"/>
<path d="M60.4954 47.6475V53.0571H58.9176C58.6246 53.0672 58.3469 53.19 58.1424 53.4C57.9378 53.61 57.8223 53.8909 57.82 54.1841V73.3431H15.8662V47.6475H60.4954Z" stroke="#DEDED9" stroke-linecap="round" stroke-linejoin="round"/>
<path d="M82.1338 57.7905H61.8478V73.3431H82.1338V57.7905Z" stroke="#DEDED9" stroke-linecap="round" stroke-linejoin="round"/>
<path d="M11.809 73.3433H15.8662V35.9269C15.8677 35.7752 15.8382 35.6247 15.7796 35.4847C15.721 35.3447 15.6345 35.2181 15.5254 35.1127C15.4163 35.0072 15.2868 34.9251 15.1449 34.8713C15.003 34.8175 14.8516 34.7932 14.7 34.7999H12.936C12.7876 34.7986 12.6405 34.8269 12.5032 34.883C12.3658 34.9392 12.2411 35.0222 12.1362 35.1271C12.0313 35.232 11.9483 35.3568 11.8921 35.4941C11.8359 35.6314 11.8077 35.7785 11.809 35.9269V73.3433Z" stroke="#DEDED9" stroke-linecap="round" stroke-linejoin="round"/>
<path d="M60.4954 40.2095H15.8662V44.9429H60.4954V40.2095Z" stroke="#DEDED9" stroke-linecap="round" stroke-linejoin="round"/>
<path d="M82.1338 57.7905H61.8478V73.3431H82.1338V57.7905Z" stroke="#DEDED9" stroke-linecap="round" stroke-linejoin="round"/>
<path d="M71.9908 63.876H67.9336V73.3428H71.9908V63.876Z" stroke="#DEDED9" stroke-linecap="round" stroke-linejoin="round"/>
<path d="M76.048 63.876H71.9908V73.3428H76.048V63.876Z" stroke="#DEDED9" stroke-linecap="round" stroke-linejoin="round"/>
<path d="M71.9908 44.9427C76.4723 44.9427 80.1052 41.3097 80.1052 36.8283C80.1052 32.3468 76.4723 28.7139 71.9908 28.7139C67.5093 28.7139 63.8764 32.3468 63.8764 36.8283C63.8764 41.3097 67.5093 44.9427 71.9908 44.9427Z" stroke="#DEDED9" stroke-linecap="round" stroke-linejoin="round"/>
<path d="M71.54 41.1601L70.56 42.1401C70.4968 42.2066 70.4208 42.2594 70.3366 42.2956C70.2524 42.3317 70.1617 42.3503 70.07 42.3503C69.9783 42.3503 69.8876 42.3317 69.8034 42.2956C69.7192 42.2594 69.6432 42.2066 69.58 42.1401L66.7282 39.2001C66.6618 39.137 66.6089 39.061 66.5728 38.9767C66.5366 38.8925 66.518 38.8018 66.518 38.7101C66.518 38.6185 66.5366 38.5278 66.5728 38.4435C66.6089 38.3593 66.6618 38.2833 66.7282 38.2201L67.7082 37.2401C67.7706 37.1724 67.8464 37.1184 67.9307 37.0814C68.015 37.0445 68.1061 37.0254 68.1982 37.0254C68.2903 37.0254 68.3814 37.0445 68.4657 37.0814C68.55 37.1184 68.6258 37.1724 68.6882 37.2401L71.54 40.1801C71.6077 40.2425 71.6617 40.3183 71.6987 40.4026C71.7357 40.487 71.7548 40.5781 71.7548 40.6701C71.7548 40.7622 71.7357 40.8533 71.6987 40.9376C71.6617 41.022 71.6077 41.0977 71.54 41.1601Z" stroke="#DEDED9" stroke-linecap="round" stroke-linejoin="round"/>
<path d="M77.2534 35.3976L76.2734 36.3776C76.211 36.4453 76.1352 36.4994 76.0509 36.5363C75.9666 36.5733 75.8755 36.5924 75.7834 36.5924C75.6913 36.5924 75.6002 36.5733 75.5159 36.5363C75.4316 36.4994 75.3558 36.4453 75.2934 36.3776L72.52 33.4768C72.4523 33.4144 72.3983 33.3387 72.3613 33.2543C72.3243 33.17 72.3053 33.0789 72.3053 32.9868C72.3053 32.8948 72.3243 32.8037 72.3613 32.7194C72.3983 32.635 72.4523 32.5593 72.52 32.4968L73.5 31.5169C73.5632 31.4504 73.6392 31.3975 73.7234 31.3614C73.8076 31.3253 73.8983 31.3066 73.99 31.3066C74.0817 31.3066 74.1724 31.3253 74.2566 31.3614C74.3408 31.3975 74.4168 31.4504 74.48 31.5169L77.3514 34.3882C77.4169 34.4584 77.4666 34.5416 77.4975 34.6324C77.5283 34.7232 77.5394 34.8196 77.5302 34.9151C77.5209 35.0105 77.4914 35.1029 77.4437 35.1861C77.396 35.2693 77.3311 35.3414 77.2534 35.3976V35.3976Z" stroke="#DEDED9" stroke-linecap="round" stroke-linejoin="round"/>
<path d="M72.9443 33.9585L69.1191 37.7837L71.0317 39.6963L74.8569 35.8711L72.9443 33.9585Z" stroke="#DEDED9" stroke-linecap="round" stroke-linejoin="round"/>
<path d="M67.9336 63.8763V57.7905" stroke="#DEDED9" stroke-linecap="round" stroke-linejoin="round"/>
<path d="M76.048 63.8763V57.7905" stroke="#DEDED9" stroke-linecap="round" stroke-linejoin="round"/>
<path d="M76.048 68.6099H82.1338" stroke="#DEDED9" stroke-linecap="round" stroke-linejoin="round"/>
<path d="M67.9336 68.6099H61.8478" stroke="#DEDED9" stroke-linecap="round" stroke-linejoin="round"/>
<path d="M28.714 47.6475V73.3431" stroke="#DEDED9" stroke-linecap="round" stroke-linejoin="round"/>
<path d="M47.6476 47.6475V73.3431" stroke="#DEDED9" stroke-linecap="round" stroke-linejoin="round"/>
<path d="M15.8662 53.7334H57.7906" stroke="#DEDED9" stroke-linecap="round" stroke-linejoin="round"/>
<path d="M15.8662 67.2573H57.7906" stroke="#DEDED9" stroke-linecap="round" stroke-linejoin="round"/>
</svg>
