<svg width="48" height="48" viewBox="0 0 48 48" fill="none" xmlns="http://www.w3.org/2000/svg">
<path d="M25 34H27V38H25V34ZM25 45H27V41H25V45ZM17 31H19V27H17V31ZM17 45H19V41H17V45ZM17 38H19V34H17V38ZM25 31H27V27H25V31ZM33 38H35V34H33V38ZM41 31H43V27H41V31ZM48 23V24H12V23C12 14.529 16.407 10.67 27 10.088V10C27 7.869 28.022 7.254 28.964 7.074C28.6 2.221 25.194 2 18 2H13C5.393 2 2 4.467 2 10V48H0V10C0 0 9.785 0 13 0H18C24.685 0 30.48 0.02 30.954 7.061C31.917 7.219 33 7.807 33 10V10.109C45.3 11.006 48 17.492 48 23ZM45.966 22C45.505 15.273 40.27 12 30 12C17.343 12 14.294 15.799 14.021 22H45.966ZM41 38H43V34H41V38ZM33 31H35V27H33V31ZM33 45H35V41H33V45ZM41 45H43V41H41V45Z" fill="#C0DF16"/>
</svg>
