<svg width="52" height="59" viewBox="0 0 52 59" fill="none" xmlns="http://www.w3.org/2000/svg">
<path d="M25.9883 0C17.4103 0 10.4316 6.97871 10.4316 15.5566C10.4316 24.1346 17.4103 31.1133 25.9883 31.1133C34.5662 31.1133 41.5449 24.1346 41.5449 15.5566C41.5449 6.97871 34.5662 0 25.9883 0Z" fill="#101820"/>
<path d="M45.3437 41.2764C41.0847 36.9519 35.4385 34.5703 29.4453 34.5703H22.5312C16.5381 34.5703 10.8919 36.9519 6.63282 41.2764C2.39462 45.5797 0.0605469 51.2601 0.0605469 57.2715C0.0605469 58.2261 0.834461 59 1.78906 59H50.1875C51.1421 59 51.916 58.2261 51.916 57.2715C51.916 51.2601 49.5819 45.5797 45.3437 41.2764Z" fill="#101820"/>
</svg>
