<svg width="59" height="60" viewBox="0 0 59 60" fill="none" xmlns="http://www.w3.org/2000/svg">
<path d="M1.61353 24.9593C0.569042 22.1379 -0.18731 19.2566 0.0407958 16.1952C0.184863 14.3103 0.893192 12.7016 2.27383 11.3809C3.77453 9.96428 5.19119 8.47559 6.66788 7.03492C8.58877 5.13804 11.0019 5.15004 12.9228 7.03492C14.1113 8.19946 15.2879 9.38801 16.4644 10.5766C17.605 11.7171 18.7575 12.8576 19.898 14.0102C21.903 16.0391 21.915 18.4042 19.91 20.4211C18.4694 21.8618 17.0407 23.3145 15.576 24.7312C15.1918 25.1033 15.1558 25.4155 15.3599 25.8837C16.3204 28.1888 17.713 30.2417 19.2737 32.1626C22.4192 36.0284 25.9729 39.462 30.2108 42.1152C31.1233 42.6795 32.1197 43.0997 33.0682 43.6159C33.5604 43.8801 33.8845 43.796 34.2807 43.3878C35.7094 41.9111 37.1741 40.4585 38.6388 39.0058C40.5597 37.1089 42.9608 37.0969 44.8817 39.0058C47.2348 41.3349 49.5758 43.676 51.9049 46.0291C53.8618 47.998 53.8498 50.4111 51.8809 52.392C50.5483 53.7367 49.1436 55.0092 47.8951 56.4139C46.0702 58.4548 43.7651 59.1272 41.1479 58.9831C37.3301 58.779 33.8125 57.5064 30.4149 55.8616C22.8754 52.1999 16.4404 47.1216 11.0499 40.7106C7.06406 35.9564 3.77453 30.794 1.61353 24.9593ZM56.323 29.2573C57.8679 29.2573 59.1343 28.001 58.9884 26.4629C57.6634 12.4923 46.5076 1.3365 32.5369 0.0114614C30.9989 -0.13441 29.7426 1.13198 29.7426 2.67689C29.7426 4.2218 31.0006 5.4569 32.535 5.63729C43.419 6.91692 52.083 15.5809 53.3626 26.4649C53.543 27.9992 54.7781 29.2573 56.323 29.2573ZM42.7447 26.4798C43.0636 27.9914 44.2852 29.2573 45.8301 29.2573C47.375 29.2573 48.6492 27.9975 48.4219 26.4694C47.2046 18.2864 40.7135 11.7952 32.5304 10.578C31.0023 10.3507 29.7426 11.6249 29.7426 13.1698C29.7426 14.7147 31.0085 15.9363 32.5201 16.2552C35.0127 16.7811 37.301 18.0149 39.143 19.8569C40.9849 21.6988 42.2188 23.9872 42.7447 26.4798Z" fill="#101820"/>
</svg>
